<svg id="visual" viewBox="0 0 960 540" width="960" 
height="540" xmlns="http://www.w3.org/2000/svg" 
xmlns:xlink="http://www.w3.org/1999/xlink" version="1.1">
<rect x="0" y="0" width="960" height="540" fill="#001220">
</rect><path d="M0 321L22.8 328.5C45.7 336 91.3 351 137 353.3C182.7 355.7 228.3 345.3 274 350C319.7 354.7 365.3 374.3 411.2 371.8C457 369.3 503 344.7 548.8 341.3C594.7 338 640.3 356 686 362.2C731.7 368.3 777.3 362.7 823 356.3C868.7 350 914.3 343 937.2 339.5L960 336L960 541L937.2 541C914.3 541 868.7 541 823 541C777.3 541 731.7 541 686 541C640.3 541 594.7 541 548.8 541C503 541 457 541 411.2 541C365.3 541 319.7 541 274 541C228.3 541 182.7 541 137 541C91.3 541 45.7 541 22.8 541L0 541Z" fill="#fa7268"></path><path d="M0 402L22.8 402C45.7 402 91.3 402 137 394.8C182.7 387.7 228.3 373.3 274 370C319.7 366.7 365.3 374.3 411.2 384.2C457 394 503 406 548.8 411.5C594.7 417 640.3 416 686 417.3C731.7 418.7 777.3 422.3 823 415.3C868.7 408.3 914.3 390.7 937.2 381.8L960 373L960 541L937.2 541C914.3 541 868.7 541 823 541C777.3 541 731.7 541 686 541C640.3 541 594.7 541 548.8 541C503 541 457 541 411.2 541C365.3 541 319.7 541 274 541C228.3 541 182.7 541 137 541C91.3 541 45.7 541 22.8 541L0 541Z" fill="#ef5f67">
</path><path d="M0 430L22.8 426.8C45.7 423.7 91.3 417.3 137 416.7C182.7 416 228.3 421 274 422.2C319.7 423.3 365.3 420.7 411.2 425.8C457 431 503 444 548.8 443.2C594.7 442.3 640.3 427.7 686 421C731.7 414.3 777.3 415.7 823 422.2C868.7 428.7 914.3 440.3 937.2 446.2L960 452L960 541L937.2 541C914.3 541 868.7 541 823 541C777.3 541 731.7 541 686 541C640.3 541 594.7 541 548.8 541C503 541 457 541 411.2 541C365.3 541 319.7 541 274 541C228.3 541 182.7 541 137 541C91.3 541 45.7 541 22.8 541L0 541Z" fill="#e34c67"></path><path d="M0 474L22.8 467.5C45.7 461 91.3 448 137 449.7C182.7 451.3 228.3 467.7 274 469.8C319.7 472 365.3 460 411.2 455.3C457 450.7 503 453.3 548.8 454.2C594.7 455 640.3 454 686 458.2C731.7 462.3 777.3 471.7 823 476.8C868.7 482 914.3 483 937.2 483.5L960 484L960 541L937.2 541C914.3 541 868.7 541 823 541C777.3 541 731.7 541 686 541C640.3 541 594.7 541 548.8 541C503 541 457 541 411.2 541C365.3 541 319.7 541 274 541C228.3 541 182.7 541 137 541C91.3 541 45.7 541 22.8 541L0 541Z" fill="#d53867"></path><path d="M0 510L22.8 506C45.7 502 91.3 494 137 494C182.7 494 228.3 502 274 507C319.7 512 365.3 514 411.2 514.8C457 515.7 503 515.3 548.8 510.5C594.7 505.7 640.3 496.3 686 493C731.7 489.7 777.3 492.3 823 495.8C868.7 499.3 914.3 503.7 937.2 505.8L960 508L960 541L937.2 541C914.3 541 868.7 541 823 541C777.3 541 731.7 541 686 541C640.3 541 594.7 541 548.8 541C503 541 457 541 411.2 541C365.3 541 319.7 541 274 541C228.3 541 182.7 541 137 541C91.3 541 45.7 541 22.8 541L0 541Z" fill="#c62368"></path>
</svg>